/* XPM */ 
static char * dancer_xpm[] = {
"32 32 10 1",
" 	c None",
"!	c black",
"#	c #525252",
"$	c #FCD807",
"%	c #FEF1A7",
"&	c #998302",
"'	c #FFFAD9",
"(	c #DCBB03",
")	c #858585",
"*	c #7D6B02",
"                    ###         ",
"                   #$%&#        ",
"                   #'$(#        ",
"                   #'$&#        ",
"                   #'(#         ",
"                   #$(##        ",
"                 ##$$(((#     # ",
"               ##%'$$$($(#   #$#",
"              #%'$$$$$((%(#  #%#",
"         #  ##%$(##$$$(#$%(##%(#",
"        #%##%$(##  #%$&##$$$$(# ",
"        #($$(##    #'$&# ##((#  ",
"         ####      #%$&#   ##   ",
"                  #%$$&#        ",
"                 #%$$$&#        ",
"               ))#'$$$$*#       ",
"             )) #%$&##$$#       ",
"           )) )#%$&#)#%$*#      ",
"         ))  )#%$&#  )#%(#      ",
"       ))     #'&#    #'(#      ",
"     ))  ))  )#%$&#  )#%*#)     ",
"   ))      ))  #$$&#)#$$#  ))   ",
" ))  ))  ))  )) #&$# #'(#))  )) ",
")      ))      ))#$# #'(#      )",
" ))  ))  ))  ))  )#  #%*#))  )) ",
"   ))      ))      ))#$#   ))   ",
"     ))  ))  ))  ))  #$# ))     ",
"       ))      ))     #))       ",
"         ))  ))  ))  ))         ",
"           ))      ))           ",
"             ))  ))             ",
"               ))               "};