/* XPM */ 
static char * fwd_xpm[] = {
"16 15 10 1",
" 	c None",
"!	c black",
"#	c #525252",
"$	c #FFFCE8",
"%	c #FCD807",
"&	c #998302",
"'	c #DCBB03",
"(	c #FEF1A7",
")	c #7D6B02",
"*	c #FFFAD9",
" ######         ",
"#$$$%%&##       ",
"#$%%$$%%&##     ",
"#$%'&%$$%%&#    ",
"#$%&###%$$%&#   ",
"#(%')# ##%$%&#  ",
"#(('&#   #%*%&# ",
"#%(%&#    #**%&#",
" #$%&#   #**%%&#",
" #$%&#  #**%&&# ",
" #$%&# #**%&##  ",
" #$%&##**%&#    ",
" #$%)#'*%&#     ",
" #%&##%%&#      ",
"  ##  ###       "};