/* XPM */ 
static char * help_xpm[] = {
"16 15 8 1",
" 	c None",
"!	c black",
"#	c #525252",
"$	c #00F000",
"%	c #00BA00",
"&	c #009B00",
"'	c #005D00",
"(	c #003E00",
"     #####      ",
"    #$%%%&#     ",
"   #$''''''#    ",
"  #$''(((&'(#   ",
"  #'((###&'(#   ",
"   ###  #%'(#   ",
"       #$'(#    ",
"      #$'(#     ",
"      #$(#      ",
"      #%(#      ",
"      #&(#      ",
"       ##       ",
"      #$'#      ",
"      #&'#      ",
"       ##       "};