/* XPM */ 
static char * open_xpm[] = {
"16 15 12 1",
" 	c None",
"!	c black",
"#	c #525252",
"$	c #FCD807",
"%	c #009B00",
"&	c #48FF48",
"'	c #00D900",
"(	c #005D00",
")	c #007C00",
"*	c #00BA00",
"+	c #B4FFB4",
",	c #90FF90",
"       #####    ",
"      ##$$$#### ",
"      #$###$#$# ",
"      ### ##$$# ",
" ####     #$$$# ",
"#%%%%########## ",
"#%%%%%%%%%%%%#  ",
"#%%%%%%%%%%%%#  ",
"#%%%&'''''''''# ",
"#%%''%()()()()*#",
"#%%+%((((((((()#",
"#%'')(((((((((# ",
"#%,%(((((((((#  ",
"#'')((((((((#   ",
" ###########    "};