/* XPM */ 
static char * pause_xpm[] = {
"15 15 9 1",
" 	c None",
"!	c black",
"#	c #525252",
"$	c #FEF1A7",
"%	c #998302",
"&	c #DCBB03",
"'	c #FFFAD9",
"(	c #FCD807",
")	c #7D6B02",
"   ##     ##   ",
"  #$%#   #$&#  ",
"  #'&#   #'(#  ",
"  #'(%#  #'(%# ",
"  #'(&#  #'(&# ",
"  #'(&#  #$(&# ",
"  #$(&#   #$(&#",
"  #&$(#   #'(&#",
"   #$(%#  #'(&#",
"   #'(&#  #'(%#",
"   #'(&#  #'(%#",
"   #$(&#  #'&# ",
"    #$&#  #'&# ",
"    #()#  #$%# ",
"     ##    ##  "};