/* XPM */ 
static char * reset_xpm[] = {
"16 15 5 1",
" 	c None",
"!	c black",
"#	c #525252",
"$	c #FCD807",
"%	c #787878",
"          #     ",
"         #$#    ",
"       ###$#    ",
"     ##$$$$$#   ",
"    #$$##$$#$## ",
"     ## ##$##$$#",
"       %#$$# ## ",
"     %%#$#$$#   ",
"   %% #$# #$#   ",
" %%  %#$#%#$#%% ",
"%  %%  #$##$#  %",
" %%  %%#$#$# %% ",
"   %%  %##$#%   ",
"     %%  %#     ",
"       %%       "};